<svg xmlns="http://www.w3.org/2000/svg" width="149px" height="150px" viewBox="0 0 149 150">
	<path fill="currentColor" d="M53.4,150c-2.2,0-4.4-0.8-6.1-2.5c-3.4-3.4-3.4-8.9,0-12.2l87-87c3.4-3.4,8.9-3.4,12.2,0 c3.4,3.4,3.4,8.9,0,12.2l-87,87C57.8,149.2,55.6,150,53.4,150z M96.9,149.8c-1.6,0-3.3-0.5-4.8-1.5l-0.5-0.3c-4-2.7-5.1-8-2.4-12 c2.7-4,8-5.1,12-2.4l0.5,0.3c4,2.7,5.1,8,2.4,12C102.5,148.4,99.7,149.8,96.9,149.8z M26.6,133.5c-2.2,0-4.4-0.8-6.1-2.5 c-3.4-3.4-3.4-8.9,0-12.2l23.9-23.9c3.4-3.4,8.9-3.4,12.2,0c3.4,3.4,3.4,8.9,0,12.2L32.7,131C31,132.7,28.8,133.5,26.6,133.5z  M128.4,118.3c-2.2,0-4.4-0.8-6.1-2.5c-3.4-3.4-3.4-8.9,0-12.2l11.7-11.7c3.4-3.4,8.9-3.4,12.2,0c3.4,3.4,3.4,8.9,0,12.2 l-11.7,11.7C132.9,117.4,130.7,118.3,128.4,118.3z M9.7,107.2c-2.2,0-4.4-0.8-6.1-2.5c-3.4-3.4-3.4-8.9,0-12.2l0.2-0.2 c3.4-3.4,8.9-3.4,12.2,0c3.4,3.4,3.4,8.9,0,12.2l-0.2,0.2C14.1,106.4,11.9,107.2,9.7,107.2z M73.9,86.3c-2.2,0-4.4-0.8-6.1-2.5 c-3.4-3.4-3.4-8.9,0-12.2l50-50c3.4-3.4,8.9-3.4,12.2,0c3.4,3.4,3.4,8.9,0,12.2l-50,50C78.3,85.4,76.1,86.3,73.9,86.3z M33.2,83.7 c-2.2,0-4.4-0.8-6.1-2.5c-3.4-3.4-3.4-8.9,0-12.2L91.5,4.5c3.4-3.4,8.9-3.4,12.2,0c3.4,3.4,3.4,8.9,0,12.2L39.4,81.1 C37.7,82.8,35.5,83.7,33.2,83.7z M8.7,65c-2.2,0-4.4-0.8-6.1-2.5c-3.4-3.4-3.4-8.9,0-12.2L27.7,25c3.4-3.4,8.9-3.4,12.2,0 s3.4,8.9,0,12.2L14.8,62.4C13.1,64.1,10.9,65,8.7,65z M55.4,18.2c-4.8,0-8.7-3.9-8.7-8.7V8.7c0-4.8,3.9-8.7,8.7-8.7 s8.7,3.9,8.7,8.7v0.9C64.1,14.3,60.2,18.2,55.4,18.2z"/>
</svg>